<?xml version="1.0" encoding="UTF-8" standalone="no"?>
<svg
   id="svg"
   version="1.1"
   width="400"
   height="312.68758526603"
   viewBox="0, 0, 400,312.68758526603"
   sodipodi:docname="image2vector (1).svg"
   inkscape:version="1.3.2 (091e20e, 2023-11-25, custom)"
   inkscape:export-filename="..\src\assets\tribofit_logo.svg"
   inkscape:export-xdpi="72"
   inkscape:export-ydpi="72"
   xmlns:inkscape="http://www.inkscape.org/namespaces/inkscape"
   xmlns:sodipodi="http://sodipodi.sourceforge.net/DTD/sodipodi-0.dtd"
   xmlns="http://www.w3.org/2000/svg"
   xmlns:svg="http://www.w3.org/2000/svg">
  <defs
     id="defs1" />
  <sodipodi:namedview
     id="namedview1"
     pagecolor="#505050"
     bordercolor="#eeeeee"
     borderopacity="1"
     inkscape:showpageshadow="0"
     inkscape:pageopacity="0"
     inkscape:pagecheckerboard="0"
     inkscape:deskcolor="#d1d1d1"
     showguides="true"
     inkscape:zoom="0.63881653"
     inkscape:cx="-1258.5773"
     inkscape:cy="-263.769"
     inkscape:window-width="1920"
     inkscape:window-height="1013"
     inkscape:window-x="-9"
     inkscape:window-y="-9"
     inkscape:window-maximized="1"
     inkscape:current-layer="svgg">
    <sodipodi:guide
       position="195.08731,131.70682"
       orientation="1,0"
       id="guide71"
       inkscape:locked="false" />
  </sodipodi:namedview>
  <g
     inkscape:groupmode="layer"
     id="layer3"
     inkscape:label="Layer 1" />
  <g
     inkscape:groupmode="layer"
     id="layer4"
     inkscape:label="Layer 2">
    <g
       id="svgg"
       transform="translate(-1137.5918,-292.66549)"
       style="fill:#fec63e;fill-opacity:1">
      <path
         id="path4"
         style="fill:#fec63e;stroke-width:1.30383;fill-opacity:1"
         d="M 261.75196 325.95651 C 251.73075 325.95651 251.1698 325.99716 250.76953 326.74557 C 250.22323 327.76516 250.20243 357.71577 250.7461 358.5776 C 251.22591 359.33903 258.5231 359.68394 260.23633 359.02682 L 261.35742 358.59908 L 261.35742 352.55221 C 261.35742 345.09825 260.98889 345.53072 267.35157 345.53072 L 272.36719 345.53072 L 272.36719 342.68307 C 272.36719 339.29704 272.669 339.45866 266.04688 339.31002 L 261.5625 339.20846 L 261.5625 336.55807 L 261.5625 333.90768 L 267.06641 333.7983 C 273.52034 333.67052 273.5918 333.62701 273.5918 329.78072 C 273.5918 325.80015 274.0744 325.95651 261.75196 325.95651 z " />
      <path
         id="path6"
         style="fill:#ffffff;stroke-width:1.30383;fill-opacity:1"
         d="M 90.097659 325.95651 C 81.570641 325.95651 78.302564 326.08949 77.945316 326.44674 C 77.296011 327.09605 77.296011 332.56501 77.945316 333.21432 C 78.228246 333.49725 79.585132 333.70455 81.164066 333.70455 C 84.640063 333.70455 84.388675 332.67177 84.388675 346.97213 L 84.388675 358.94869 L 85.783206 359.21041 C 88.376515 359.69804 95.386807 359.25555 95.814456 358.5776 C 96.034806 358.22947 96.203114 352.75481 96.207034 345.83541 L 96.212894 333.70455 L 98.986331 333.70455 C 102.48189 333.70455 102.73828 333.43985 102.73828 329.82955 C 102.73828 325.71599 103.52054 325.95651 90.097659 325.95651 z " />
      <path
         id="path5"
         style="fill:#ffffff;stroke-width:1.30383;fill-opacity:1"
         d="M 120.27344 325.93697 C 115.88151 325.92214 111.74072 326.08885 111.38282 326.44674 C 110.77263 327.05693 110.68673 357.61928 111.29297 358.5776 C 111.60198 359.06653 112.66923 359.18893 116.60157 359.18893 C 122.61481 359.18893 122.29687 359.55831 122.30469 352.56197 C 122.31169 346.68955 122.97393 345.23157 123.97266 348.89401 C 125.71197 355.26972 126.85962 357.1119 130.09961 358.72604 C 131.90933 359.62829 132.80154 359.80221 135.64258 359.80221 C 140.20989 359.80221 140.66016 359.36926 140.66016 354.98971 C 140.66016 351.42114 140.33338 350.82955 138.35547 350.82955 C 133.83903 350.82955 132.10723 346.1091 135.66407 343.48971 C 142.68908 338.31613 139.94534 328.98846 130.66992 326.51119 C 129.30808 326.14743 124.66538 325.95181 120.27344 325.93697 z M 154.03711 325.99361 C 151.65926 325.99883 149.28435 326.07739 148.91602 326.22604 C 148.52096 326.3851 148.40625 330.06012 148.40625 342.66158 L 148.40625 358.8901 L 149.32422 359.13619 C 150.85622 359.54689 158.19289 359.42131 159.03516 358.97018 C 160.14472 358.37694 160.28403 326.6283 159.17969 326.20455 C 158.79702 326.05722 156.41497 325.9884 154.03711 325.99361 z M 122.31055 333.60885 L 124.9375 333.77682 C 126.74852 333.89287 127.8267 334.17976 128.4043 334.7026 C 130.63254 336.71831 128.77757 339.0427 124.70703 339.33736 L 122.31055 339.51119 L 122.31055 336.56002 L 122.31055 333.60885 z " />
      <path
         id="path3"
         style="fill:#ffffff;stroke-width:1.30383;fill-opacity:1"
         d="M 174.30274 325.90377 C 172.38426 325.94647 170.96673 326.04937 170.5293 326.22604 C 169.6088 326.59763 169.80802 358.80623 170.73242 359.21432 C 172.66208 360.06833 189.72079 359.90366 192.09766 359.00924 C 200.78375 355.74054 203.20128 345.97418 196.30664 342.00924 C 195.51261 341.5516 195.51382 341.5359 196.37305 340.58151 C 200.91297 335.54352 198.93224 329.07998 192.15235 326.80611 C 190.3208 326.19202 180.05817 325.77567 174.30274 325.90377 z M 183.71485 331.95455 C 184.37923 332.02404 185.18232 332.26522 186.14063 332.66549 C 190.31678 334.41001 188.26809 339.58249 183.5 339.32955 L 181.23242 339.20846 L 181.11133 336.21627 C 180.98421 333.07438 181.72171 331.74609 183.71485 331.95455 z M 183.81446 345.13229 C 185.01561 345.15755 186.31107 345.28889 186.89453 345.51119 C 189.69776 346.57641 189.84997 350.39675 187.14453 351.74752 C 185.50824 352.56502 182.24121 352.69575 181.51758 351.97213 C 181.00127 351.45581 180.81837 345.87773 181.30078 345.39401 C 181.50614 345.18931 182.61331 345.10703 183.81446 345.13229 z " />
      <path
         id="path2"
         style="fill:#fec63e;stroke-width:1.30383;fill-opacity:1"
         d="M 287.84375 325.89401 C 285.29396 325.82409 282.69463 325.98845 282.23633 326.44674 C 281.87256 326.81051 281.7461 330.99742 281.7461 342.76705 L 281.7461 358.59908 L 282.86719 359.02682 C 284.60259 359.69046 292.69402 359.33903 293.17383 358.5776 C 293.71753 357.71577 293.69477 327.76516 293.14844 326.74557 C 292.89289 326.26706 290.39355 325.96392 287.84375 325.89401 z M 314.28711 326.00143 C 308.49748 325.98269 302.66985 326.05066 302.23633 326.22604 C 301.8856 326.36816 301.72657 327.49958 301.72657 329.8569 C 301.72657 333.75012 301.57378 333.60273 305.80469 333.80221 L 308.04688 333.90768 L 308.1543 346.25533 L 308.26172 358.60299 L 309.30274 358.99752 C 309.87382 359.21396 312.0623 359.39401 314.16407 359.39401 C 316.26452 359.39401 318.45301 359.21396 319.02539 358.99752 L 320.06446 358.60299 L 320.17188 346.25533 L 320.2793 333.90768 L 323.33789 333.70455 L 326.39649 333.50143 L 326.51563 330.06979 C 326.60173 327.60034 326.48682 326.54537 326.10742 326.30416 C 325.82776 326.12684 320.07675 326.02017 314.28711 326.00143 z " />
      <path
         id="path1"
         style="fill:#ffffff;stroke-width:1.30383;fill-opacity:1"
         d="M 224.32617 325.25729 C 222.14253 325.21783 219.94095 325.54666 217.85157 326.28854 C 204.03232 331.19483 202.84636 351.5611 216.00196 358.05807 L 219.11719 359.59713 L 224.43555 359.59713 C 238.49079 359.59713 246.2356 346.95329 239.95899 334.25533 C 237.263 328.7998 230.8771 325.37567 224.32617 325.25729 z M 223.60547 334.52486 C 224.63602 334.4152 225.7673 334.62144 226.95508 335.18502 C 230.5041 336.86956 231.85475 343.55134 229.46485 347.61666 C 225.78936 353.8672 218.33985 350.71563 218.33985 342.90963 C 218.33985 338.0242 220.51382 334.85385 223.60547 334.52486 z " />
      <path
         d="m 190.59692,184.63184 c -0.97211,0.0282 -2.56313,0.94137 -5.38703,2.56014 -23.17731,13.28522 -40.35402,34.18452 -54.99616,66.91692 -2.2615,5.05691 -2.44657,4.52603 3.57171,10.22323 23.01411,21.77964 60.52599,31.92431 83.2616,22.51466 5.15447,-2.1338 25.02769,-14.16675 26.00324,-15.74536 0.18802,-0.30508 -4.23912,-5.11269 -9.83522,-10.68399 -23.29441,-23.18974 -36.84085,-46.91231 -40.63308,-71.15033 -0.45228,-2.88676 -0.68097,-4.33017 -1.60397,-4.59024 -0.11529,-0.0325 -0.2422,-0.0491 -0.38109,-0.0451 z m -24.59324,39.49679 c 1.66887,0.0981 3.30524,0.62652 4.69763,1.57281 8.33121,5.66882 2.75549,19.32067 -7.13306,17.46712 -8.78884,-1.64957 -10.46807,-13.95763 -2.45968,-18.02835 1.5263,-0.77601 3.22625,-1.10958 4.89511,-1.01158 z m 31.89259,19.48684 c 1.25469,0.0921 2.53112,0.44205 3.76919,1.07394 6.05194,3.08627 6.89692,12.01747 1.52429,16.09525 -8.00306,6.07149 -18.52791,-2.4112 -14.35963,-11.57432 1.73472,-3.81393 5.30205,-5.87108 9.06615,-5.59487 z m -30.5415,9.97032 c 1.95419,-0.15076 3.90271,0.33675 5.52213,1.48966 9.65263,6.87322 1.05184,21.97523 -9.46107,16.61145 -6.11227,-3.11822 -6.93913,-11.19728 -1.61438,-15.75575 1.6407,-1.4048 3.5991,-2.19459 5.55332,-2.34536 z"
         style="fill:#fec63e;fill-opacity:1;stroke-width:1.77374"
         id="path75" />
      <g
         id="g79"
         transform="matrix(1.7737352,0,0,1.7737352,-267.21927,-95.38395)"
         style="fill:#fec63e;fill-opacity:1">
        <g
           id="g82"
           transform="translate(0.22992093)"
           style="fill:#fec63e;fill-opacity:1">
          <path
             id="path67"
             style="fill:#fec63e;fill-opacity:1"
             d="m 293.71788,166.70832 c -0.86166,0.0248 -1.7392,0.10987 -2.62695,0.25781 -3.37,0.561 -8.60446,3.11638 -9.43946,4.60938 -1.225,2.18799 16.32821,23.74761 21.65821,26.59961 1.42099,0.761 6.86675,-3.56218 7.96875,-6.32618 4.97905,-12.49592 -4.63559,-25.51275 -17.56055,-25.14062 z" />
          <path
             id="path65"
             style="fill:#fec63e;fill-opacity:1"
             d="m 305.64366,150.1009 c -0.48847,0.0444 -1.19689,0.25295 -2.27539,0.5957 -7.14199,2.27 -19.65429,2.87603 -27.48828,1.33203 l -0.9043,-0.17969 0.20703,1.67774 c 0.307,2.482 0.76443,4.40599 1.98242,8.33398 l 1.09375,3.52735 1.14063,-0.6836 c 5.30599,-3.19199 7.93563,-4.193 12.14062,-4.625 14.15499,-1.453 26.27971,8.49555 27.59571,22.64453 l 0.20312,2.18946 1.51172,-1.5625 c 2.907,-3.012 9.03927,-11.75808 9.69727,-13.83008 0.253,-0.798 0.0261,-0.87897 -3.29688,-1.16797 -8.78099,-0.764 -17.73664,-8.25348 -20.30664,-16.98047 -0.28375,-0.96437 -0.48666,-1.34553 -1.30078,-1.27148 z" />
          <path
             id="path63"
             style="fill:#fec63e;fill-opacity:1"
             d="m 332.59874,135.75129 c -0.47983,0.0237 -1.33532,0.58984 -3.27344,1.96484 -1.548,1.098 -3.58916,2.44514 -4.53516,2.99414 -0.94599,0.548 -2.28937,1.38157 -2.98437,1.85157 -0.696,0.47099 -3.00014,1.72606 -5.11914,2.78906 l -3.85352,1.93359 0.18555,1.14453 c 1.228,7.602 12.63587,15.23281 20.00586,13.38282 3.24,-0.813 3.37654,-19.61418 0.18555,-25.57618 -0.16988,-0.31725 -0.32344,-0.49861 -0.61133,-0.48437 z" />
        </g>
      </g>
      <g
         id="g78"
         transform="matrix(1.7737352,0,0,1.7737352,-272.77246,-98.38097)"
         style="fill:#fec63e;fill-opacity:1">
        <path
           id="path69"
           style="fill:#fec63e;fill-opacity:1"
           d="m 223.74358,173.24415 c -0.20192,-0.007 -0.49762,0.0368 -0.89062,0.11328 -0.258,0.051 -1.52446,0.25418 -2.81445,0.45118 -5.572,0.85 -5.51658,0.82797 -5.89258,2.29297 -0.727,2.82599 -1.30296,6.75825 -1.37696,9.40625 l -0.0801,2.77343 1.4082,0.42774 c 0.774,0.235 1.43666,0.42864 1.47266,0.43164 0.036,0.002 1.13817,-2.13882 2.45117,-4.75781 2.55499,-5.097 3.45645,-6.71738 5.06445,-9.10938 1.02225,-1.52175 1.26397,-2.009 0.6582,-2.0293 z" />
        <path
           id="path71"
           style="fill:#fec63e;fill-opacity:1"
           d="m 226.36512,152.06903 c -0.56348,0.0191 -0.91519,0.43552 -2.17969,2.00977 -3.71199,4.61997 -8.71851,13.82965 -9.22851,16.97264 l -0.17188,1.06446 1.06446,-0.21875 c 0.586,-0.119 2.12016,-0.34972 3.41015,-0.51172 1.28999,-0.161 3.29604,-0.45911 4.45703,-0.66211 l 2.11133,-0.36914 1.94532,-2.5293 c 2.47299,-3.21199 7.22513,-8.13542 10.07812,-10.4414 1.213,-0.981 2.60666,-2.15065 3.09766,-2.59765 l 0.89062,-0.81055 -2.92383,-0.20703 c -4.08999,-0.288 -7.32302,-0.72728 -11.875,-1.61328 -0.27675,-0.054 -0.48795,-0.0923 -0.67578,-0.0859 z" />
        <path
           id="path64"
           style="fill:#fec63e;fill-opacity:1"
           d="m 243.36858,141.25001 c -0.20275,-0.074 -0.24318,0.0115 -0.0859,0.2793 0.075,0.129 0.69209,1.14958 1.37109,2.26758 0.678,1.118 1.76692,3.05087 2.41992,4.29687 l 1.18555,2.26367 1.52734,-0.85546 c 1.992,-1.118 1.97183,-1.18594 -1.07617,-3.96094 -2.65575,-2.41725 -4.73355,-4.06892 -5.3418,-4.29102 z" />
        <path
           id="path62"
           style="fill:#fec63e;fill-opacity:1"
           d="m 210.88811,135.35158 c -0.099,0 -0.66667,0.66932 -1.26367,1.48632 -6.34299,8.69099 -14.29197,23.31874 -14.29297,26.30274 0,1.723 4.77616,10.01311 8.16016,14.16211 0.931,1.142 2.67214,3.35783 3.86914,4.92383 2.461,3.21799 2.57524,3.21771 2.99024,0.0117 0.536,-4.13699 1.47954,-8.22587 2.81054,-12.17187 1.96,-5.81 6.50004,-14.10363 10.20703,-18.64063 0.576,-0.705 1.04883,-1.47021 1.04883,-1.69921 0,-1.741 -11.8913,-14.375 -13.5293,-14.375 z" />
        <path
           id="path78"
           style="fill:#fec63e;fill-opacity:1"
           d="m 198.28341,129.40524 c -0.75874,0.0197 -1.22606,0.32941 -1.52343,0.90429 -3.672,7.10098 -5.29336,17.86419 -3.81836,25.32618 0.678,3.42698 0.77792,3.37165 3.41992,-1.90235 2.938,-5.86498 6.23602,-11.45398 9.54101,-16.16797 2.96499,-4.22898 3.01035,-3.90505 -0.80664,-5.74804 -3.46999,-1.67562 -5.54792,-2.44498 -6.8125,-2.41211 z m 10.73633,0.40039 c -0.10853,-0.003 -0.21048,0.004 -0.30273,0.0176 -0.1845,0.0267 -0.32546,0.0845 -0.37696,0.16796 -0.10299,0.167 0.55109,0.7556 1.45508,1.3086 5.598,3.42198 11.95152,9.63499 16.1875,15.83398 1.189,1.73999 1.83489,1.99135 7.50586,2.90235 2.506,0.403 11.10413,0.57837 11.45313,0.23437 0.535,-0.528 -3.94822,-7.65745 -7.32422,-11.64844 l -1.86719,-2.20507 -4.49414,-1.75391 c -6.64697,-2.59199 -12.28842,-3.94699 -18.56641,-4.45899 -1.37599,-0.112 -2.87503,-0.27532 -3.33203,-0.36132 -0.11424,-0.0213 -0.22936,-0.0342 -0.33789,-0.0371 z" />
      </g>
      <g
         id="g80"
         transform="matrix(1.7737352,0,0,1.7737352,-269.03628,-102.93545)"
         style="fill:#fec63e;fill-opacity:1">
        <path
           id="path60"
           style="fill:#fec63e;fill-opacity:1"
           d="m 283.54266,119.02603 c -0.12986,-0.0153 -0.20637,0.0462 -0.29687,0.13672 -0.115,0.114 -0.20899,0.55547 -0.20899,0.98047 0,0.424 -0.13097,1.28034 -0.29297,1.90234 -0.161,0.622 -0.52083,2.04607 -0.79883,3.16407 -0.74499,2.99598 -1.97004,6.23634 -4.12304,10.90234 -1.573,3.409 -1.56444,3.36289 -0.64844,3.58789 1.462,0.357 8.60908,0.8773 10.70508,0.7793 2.527,-0.119 2.31777,0.19127 3.13476,-4.63672 0.535,-3.158 0.95971,-5.28844 1.47071,-7.39844 0.412,-1.703 0.46263,-1.63362 -4.44336,-5.84961 -3.23175,-2.778 -4.10847,-3.52242 -4.49805,-3.56836 z m 25.29883,0.44141 c -0.24638,-0.0255 -0.47378,0.0536 -0.80078,0.22461 -0.421,0.22 -2.45358,1.43331 -4.51758,2.69531 -2.064,1.262 -4.56559,2.78386 -5.55859,3.38086 -2.079,1.25099 -2.14822,1.33539 -2.44922,3.02539 -0.123,0.695 -0.36697,2.03642 -0.54297,2.98242 -0.176,0.946 -0.53769,2.91691 -0.80469,4.37891 -0.266,1.462 -0.57359,2.97433 -0.68359,3.36133 -0.787,2.78399 16.53791,-2.87043 26.3789,-8.60743 1.904,-1.10999 1.95508,-1.17131 1.95508,-2.44531 0,-1.866 -0.47261,-2.27845 -6.09961,-5.31445 -2.75199,-1.485 -5.43203,-2.95835 -5.95703,-3.27735 -0.4075,-0.247 -0.67355,-0.37879 -0.91992,-0.40429 z" />
        <path
           id="path53"
           style="fill:#fec63e;fill-opacity:1"
           d="m 311.49761,97.386981 c -0.258,0.004 -1.48747,1.021671 -2.73046,2.263671 l -2.25977,2.259768 1.10742,4.5332 c 0.608,2.495 1.37985,5.6573 1.71485,7.0293 0.335,1.371 0.78404,2.65928 0.99804,2.86328 0.532,0.508 15.31205,10.07347 15.71605,10.07347 0.44,0 3.27099,-3.87839 1.40309,-8.72581 -0.72308,-1.87649 -14.38722,-20.320879 -15.94922,-20.296879 z"
           sodipodi:nodetypes="scccccsss" />
        <path
           id="path74"
           style="fill:#fec63e;fill-opacity:1"
           d="m 281.55621,92.150652 c -0.10668,-0.04662 -0.08,0.20647 -0.0781,0.558594 0.003,0.415 0.19378,1.600815 0.42578,2.632813 0.398,1.773996 0.56254,2.719918 1.51954,8.753911 l 0.18894,6.27038 1.52497,-6.01036 c 0.497,-1.28899 0.86461,-3.14396 1.01361,-3.30696 0.23382,-0.93053 -0.0508,-1.768947 -2.21385,-5.24994 -1.65437,-2.661869 -2.20304,-3.570743 -2.38086,-3.648438 z"
           sodipodi:nodetypes="sccsccccss" />
        <path
           id="path73"
           style="fill:#fec63e;fill-opacity:1"
           d="m 286.09136,80.119402 c -0.11303,-0.0083 -10.00143,-0.886235 -10.10012,-0.872735 -0.7895,0.10775 3.21954,3.547131 5.48255,6.412328 2.75179,4.535283 -0.031,0.0073 3.97695,6.556098 l 3.66601,6.035156 2.82422,0.33789 c 7.56699,0.902001 12.08397,1.05183 12.79297,0.423829 2.398,-2.123996 3.73366,-3.426049 3.97266,-3.873047 0.671,-1.249998 -12.21672,-10.637334 -18.3457,-13.361328 -2.28594,-1.015874 -3.4783,-1.600218 -4.26954,-1.658204 z"
           sodipodi:nodetypes="scccccsccss" />
      </g>
      <g
         id="g81"
         transform="matrix(1.7737352,0,0,1.7737352,-268.95464,-102.58268)"
         style="fill:#fec63e;fill-opacity:1">
        <path
           id="path61"
           style="fill:#fec63e;fill-opacity:1;stroke-width:2.76362"
           d="m 239.34628,120.90103 c -0.31425,0.10452 -0.67467,0.5264 -1.2528,1.19831 -0.99874,1.15919 -0.92351,1.54336 0.50001,2.54511 3.0187,2.13109 4.20402,1.51782 2.6595,-1.36798 -0.79477,-1.48092 -1.20056,-2.22116 -1.59899,-2.37015 -0.0996,-0.0372 -0.20284,-0.0402 -0.30772,-0.005 z" />
        <path
           id="path59"
           style="fill:#fec63e;fill-opacity:1"
           d="m 225.49175,116.08605 c -1.78072,-0.0101 -3.58044,0.16014 -5.21094,0.52539 -4.09599,0.919 -4.65095,1.28368 -2.50195,1.63868 4.049,0.669 11.00847,2.13784 12.85547,2.71484 l 2,0.62305 1.21679,-1.21485 c 1.445,-1.441 1.3641,-1.89092 -0.5039,-2.79492 -1.97499,-0.95625 -4.8876,-1.47539 -7.85547,-1.49219 z" />
        <path
           id="path58"
           style="fill:#fec63e;fill-opacity:1"
           d="m 244.61675,112.53137 c -0.058,0 -0.80802,1.16108 -1.66602,2.58007 -1.93699,3.202 -1.90571,3.07068 -1.01171,4.51368 1.05999,1.70899 1.95206,3.73844 2.53906,5.77343 0.454,1.57599 0.68286,1.8796 2.13086,2.8086 2.53299,1.625 5.77759,4.19889 8.93359,7.08789 l 2.89258,2.64648 1.68359,-3.55664 c 2.337,-4.94099 3.14372,-7.39291 2.63672,-8.0039 -0.556,-0.67 -7.76797,-6.51454 -10.66797,-8.64454 -2.82199,-2.07199 -7.3177,-5.20507 -7.4707,-5.20507 z" />
        <path
           id="path57"
           style="fill:#fec63e;fill-opacity:1"
           d="m 264.20073,101.10363 c -0.161,-0.028 -1.27647,0.30428 -2.48046,0.73828 -2.092,0.754 -8.93871,1.11967 -11.97071,0.63868 -0.633,-0.1 -0.84301,0.21337 -1.91601,2.85937 -1.432,3.529 -1.70256,2.88219 2.39843,5.74219 1.846,1.286 4.20043,2.99201 5.23243,3.79101 1.032,0.799 2.57945,1.9923 3.43945,2.6543 0.86,0.663 2.40941,1.91239 3.44141,2.77539 2.16299,1.809 2.25631,1.76078 2.69531,-1.32422 0.933,-6.54999 0.41015,-17.654 -0.83985,-17.875 z" />
        <path
           id="path56"
           style="fill:#fec63e;fill-opacity:1"
           d="m 219.96441,99.084101 c -0.27,0 -1.75197,1.104129 -3.29297,2.453129 -4.622,4.04399 -8.07144,7.83692 -11.52344,12.66992 -2.109,2.95199 -2.10119,2.88409 -0.36719,3.12109 1.235,0.17 1.68608,0.0328 4.08008,-1.24023 9.44099,-5.023 20.08964,-5.85251 27.01563,-2.10352 1.09499,0.593 2.07768,0.99458 2.17968,0.89258 0.636,-0.636 2.77897,-4.39855 2.66797,-4.68555 -0.367,-0.959 -19.33577,-11.107419 -20.75976,-11.107419 z" />
        <path
           id="path55"
           style="fill:#fec63e;fill-opacity:1"
           d="m 233.33941,87.828242 c -0.044,0 -1.14333,0.808875 -2.44532,1.796875 -3.27599,2.487997 -7.17187,5.748 -7.17187,6 0,0.114999 1.43731,0.898235 3.19531,1.740234 3.507,1.679998 11.11366,5.759879 11.97266,6.421879 0.702,0.541 3.96403,2.22542 4.08203,2.10742 0.26,-0.26 2.01562,-4.723 2.01562,-5.125 0,-0.23 -0.38832,-0.624 -0.86132,-0.875002 -2.416,-1.283002 -6.75577,-5.877739 -9.25977,-9.802735 -0.795,-1.246998 -1.48234,-2.264671 -1.52734,-2.263671 z" />
        <path
           id="path54"
           style="fill:#fec63e;fill-opacity:1"
           d="m 248.03667,80.420038 c -0.50183,0.06197 -1.3462,0.405829 -2.73633,0.939454 -4.46799,1.715998 -7.992,3.700594 -7.875,4.433593 0.329,2.065998 7.33302,10.164063 8.79102,10.164063 0.652,0 2.0142,-7.3836 2.4082,-13.058594 0.13188,-1.900623 0.2485,-2.581797 -0.58789,-2.478516 z" />
        <path
           id="path72"
           style="fill:#fec63e;fill-opacity:1"
           d="m 256.72141,79.572132 c -0.49839,0.02967 -1.10577,0.100531 -1.85352,0.207031 -1.402,0.199 -1.46786,0.365243 -1.75586,4.365235 -0.304,4.224991 -0.66923,6.670307 -1.86523,12.529297 -0.509,2.489994 -0.60613,2.429295 3.88086,2.404296 4.60699,-0.025 8.65234,-1.210158 8.65234,-2.535156 0,-1.471996 -2.92414,-11.319619 -4.74414,-15.974609 -0.31349,-0.803248 -0.81928,-1.085109 -2.31445,-0.996094 z" />
      </g>
    </g>
  </g>
</svg>
