<?xml version="1.0" encoding="UTF-8" standalone="no"?>
<svg
   class="ionicon"
   viewBox="0 0 512 512"
   version="1.1"
   id="svg1"
   sodipodi:docname="football-outline.svg"
   inkscape:version="1.3.2 (091e20e, 2023-11-25, custom)"
   xmlns:inkscape="http://www.inkscape.org/namespaces/inkscape"
   xmlns:sodipodi="http://sodipodi.sourceforge.net/DTD/sodipodi-0.dtd"
   xmlns="http://www.w3.org/2000/svg"
   xmlns:svg="http://www.w3.org/2000/svg">
  <defs
     id="defs1" />
  <sodipodi:namedview
     id="namedview1"
     pagecolor="#505050"
     bordercolor="#eeeeee"
     borderopacity="1"
     inkscape:showpageshadow="0"
     inkscape:pageopacity="0"
     inkscape:pagecheckerboard="0"
     inkscape:deskcolor="#d1d1d1"
     inkscape:zoom="1.5605469"
     inkscape:cx="255.6796"
     inkscape:cy="256"
     inkscape:window-width="1920"
     inkscape:window-height="1013"
     inkscape:window-x="-9"
     inkscape:window-y="-9"
     inkscape:window-maximized="1"
     inkscape:current-layer="svg1" />
  <circle
     cx="256"
     cy="256"
     r="192"
     fill="none"
     stroke="currentColor"
     stroke-linecap="round"
     stroke-miterlimit="10"
     stroke-width="32"
     id="circle1"
     style="stroke:#fec63e;stroke-opacity:1" />
  <path
     fill="none"
     stroke="currentColor"
     stroke-linecap="round"
     stroke-linejoin="round"
     stroke-width="32"
     d="M256 175.15l-76.09 63.83L200 320h112l20.09-81.02L256 175.15zM332.09 238.98l52.87-22.4 25.78-73.26M447 269.97l-62.04-53.39M179.91 238.98l-52.87-22.4-25.78-73.26M65 269.97l62.04-53.39M256 175.15v-57.57l64-42.64M192 74.93l64 42.65M312 320l28 48-28 71M410.74 368H342M200 320l-28 48 28.37 71.5M101.63 368H172"
     id="path1"
     style="stroke:#fec63e;stroke-opacity:1" />
</svg>
